
      <svg width="400" height="212" viewBox="0 0 400 212" xmlns="http://www.w3.org/2000/svg">
        <style>
          .bg { fill: #000000; }
          .title { font-family: 'Segoe UI', Ubuntu, Sans-Serif; fill: #a78bfa; font-size: 18px; font-weight: bold; }
          .text { font-family: 'Segoe UI', Ubuntu, Sans-Serif; fill: #e2e8f0; font-size: 13px; font-weight: 600; }
          .percent { fill: #94a3b8; font-weight: 400; }
          .bar-container { clip-path: url(#roundedCorners); }
        </style>
        
        <rect width="100%" height="100%" rx="12" class="bg" stroke="#3b3b58" stroke-width="1" />
        
        <text x="25" y="35" class="title">Most Used Languages</text>
        
        <defs>
          <clipPath id="roundedCorners">
            <rect x="25" y="60" width="350" height="12" rx="6" />
          </clipPath>
        </defs>

        <rect x="25" y="60" width="350" height="12" rx="6" fill="#2d2b55" />

        <g class="bar-container">
          <rect x="25" y="60" width="94.88073361041971" height="12" fill="#563d7c" /><rect x="119.88073361041971" y="60" width="94.77533306634795" height="12" fill="#e34c26" /><rect x="214.65606667676767" y="60" width="90.98707468067062" height="12" fill="#b07219" /><rect x="305.64314135743825" y="60" width="43.41732265643321" height="12" fill="#555555" /><rect x="349.06046401387147" y="60" width="12.391715322340827" height="12" fill="#f1e05a" /><rect x="361.4521793362123" y="60" width="6.601946813747525" height="12" fill="#4F5D95" /><rect x="368.0541261499598" y="60" width="3.5917600853514937" height="12" fill="#8b5cf6" /><rect x="371.6458862353113" y="60" width="2.9789406380866574" height="12" fill="#41b883" />
        </g>
        
        
        <g>
          <circle cx="30" cy="90" r="5" fill="#563d7c" />
          <text x="40" y="95" class="text">
            CSS <tspan class="percent" dx="5">27.11%</tspan>
          </text>
        </g>
      
        <g>
          <circle cx="225" cy="90" r="5" fill="#e34c26" />
          <text x="235" y="95" class="text">
            HTML <tspan class="percent" dx="5">27.08%</tspan>
          </text>
        </g>
      
        <g>
          <circle cx="30" cy="115" r="5" fill="#b07219" />
          <text x="40" y="120" class="text">
            Java <tspan class="percent" dx="5">26.00%</tspan>
          </text>
        </g>
      
        <g>
          <circle cx="225" cy="115" r="5" fill="#555555" />
          <text x="235" y="120" class="text">
            C <tspan class="percent" dx="5">12.40%</tspan>
          </text>
        </g>
      
        <g>
          <circle cx="30" cy="140" r="5" fill="#f1e05a" />
          <text x="40" y="145" class="text">
            JavaScript <tspan class="percent" dx="5">3.54%</tspan>
          </text>
        </g>
      
        <g>
          <circle cx="225" cy="140" r="5" fill="#4F5D95" />
          <text x="235" y="145" class="text">
            PHP <tspan class="percent" dx="5">1.89%</tspan>
          </text>
        </g>
      
        <g>
          <circle cx="30" cy="165" r="5" fill="#8b5cf6" />
          <text x="40" y="170" class="text">
            PLSQL <tspan class="percent" dx="5">1.03%</tspan>
          </text>
        </g>
      
        <g>
          <circle cx="225" cy="165" r="5" fill="#41b883" />
          <text x="235" y="170" class="text">
            Vue <tspan class="percent" dx="5">0.85%</tspan>
          </text>
        </g>
      
      </svg>
    