
      <svg width="400" height="212" viewBox="0 0 400 212" xmlns="http://www.w3.org/2000/svg">
        <style>
          .bg { fill: #000000; }
          .title { font-family: 'Segoe UI', Ubuntu, Sans-Serif; fill: #a78bfa; font-size: 18px; font-weight: bold; }
          .text { font-family: 'Segoe UI', Ubuntu, Sans-Serif; fill: #e2e8f0; font-size: 13px; font-weight: 600; }
          .percent { fill: #94a3b8; font-weight: 400; }
          .bar-container { clip-path: url(#roundedCorners); }
        </style>
        
        <rect width="100%" height="100%" rx="12" class="bg" stroke="#3b3b58" stroke-width="1" />
        
        <text x="25" y="35" class="title">Most Used Languages</text>
        
        <defs>
          <clipPath id="roundedCorners">
            <rect x="25" y="60" width="350" height="12" rx="6" />
          </clipPath>
        </defs>

        <rect x="25" y="60" width="350" height="12" rx="6" fill="#2d2b55" />

        <g class="bar-container">
          <rect x="25" y="60" width="95.39308343067502" height="12" fill="#563d7c" /><rect x="120.39308343067502" y="60" width="95.28711373048742" height="12" fill="#e34c26" /><rect x="215.68019716116243" y="60" width="89.5884216487912" height="12" fill="#b07219" /><rect x="305.26861880995364" y="60" width="43.65177338855262" height="12" fill="#555555" /><rect x="348.92039219850625" y="60" width="12.45862978301653" height="12" fill="#f1e05a" /><rect x="361.3790219815228" y="60" width="6.637596899224806" height="12" fill="#4F5D95" /><rect x="368.0166188807476" y="60" width="3.6111553573324833" height="12" fill="#8b5cf6" /><rect x="371.6277742380801" y="60" width="2.9950267247177096" height="12" fill="#41b883" />
        </g>
        
        
        <g>
          <circle cx="30" cy="90" r="5" fill="#563d7c" />
          <text x="40" y="95" class="text">
            CSS <tspan class="percent" dx="5">27.26%</tspan>
          </text>
        </g>
      
        <g>
          <circle cx="225" cy="90" r="5" fill="#e34c26" />
          <text x="235" y="95" class="text">
            HTML <tspan class="percent" dx="5">27.22%</tspan>
          </text>
        </g>
      
        <g>
          <circle cx="30" cy="115" r="5" fill="#b07219" />
          <text x="40" y="120" class="text">
            Java <tspan class="percent" dx="5">25.60%</tspan>
          </text>
        </g>
      
        <g>
          <circle cx="225" cy="115" r="5" fill="#555555" />
          <text x="235" y="120" class="text">
            C <tspan class="percent" dx="5">12.47%</tspan>
          </text>
        </g>
      
        <g>
          <circle cx="30" cy="140" r="5" fill="#f1e05a" />
          <text x="40" y="145" class="text">
            JavaScript <tspan class="percent" dx="5">3.56%</tspan>
          </text>
        </g>
      
        <g>
          <circle cx="225" cy="140" r="5" fill="#4F5D95" />
          <text x="235" y="145" class="text">
            PHP <tspan class="percent" dx="5">1.90%</tspan>
          </text>
        </g>
      
        <g>
          <circle cx="30" cy="165" r="5" fill="#8b5cf6" />
          <text x="40" y="170" class="text">
            PLSQL <tspan class="percent" dx="5">1.03%</tspan>
          </text>
        </g>
      
        <g>
          <circle cx="225" cy="165" r="5" fill="#41b883" />
          <text x="235" y="170" class="text">
            Vue <tspan class="percent" dx="5">0.86%</tspan>
          </text>
        </g>
      
      </svg>
    